<svg width="1200" height="1960" viewBox="0 0 1200 1960" fill="none" xmlns="http://www.w3.org/2000/svg">
<rect x="1" y="1" width="1198" height="978" stroke="#120078" stroke-width="2"/>
<mask id="path-2-inside-1_105_2722" fill="white">
<path d="M1200 1960L0.00012207 1960L0.000201398 980L1200 980L1200 1960Z"/>
</mask>
<path d="M1200 1960L1200 1962L1202 1962L1202 1960L1200 1960ZM0.00012207 1960L-1.99988 1960L-1.99988 1962L0.000121908 1962L0.00012207 1960ZM1200 1958L0.000122232 1958L0.000121908 1962L1200 1962L1200 1958ZM2.00012 1960L2.0002 980L-1.9998 980L-1.99988 1960L2.00012 1960ZM1198 980L1198 1960L1202 1960L1202 980L1198 980Z" fill="#120078" mask="url(#path-2-inside-1_105_2722)"/>
<mask id="path-4-inside-2_105_2722" fill="white">
<path fill-rule="evenodd" clip-rule="evenodd" d="M600 0H101.852V332.5V333H101.852C102.257 516.405 325.13 665 600 665C874.87 665 1097.74 516.405 1098.15 333H1098.15V332.5V0H600Z"/>
</mask>
<path d="M101.852 0V-2H99.8518V0H101.852ZM101.852 333H99.8518V335H101.852V333ZM101.852 333L103.852 332.996L103.848 331H101.852V333ZM1098.15 333V331H1096.15L1096.15 332.996L1098.15 333ZM1098.15 333V335H1100.15V333H1098.15ZM1098.15 0H1100.15V-2H1098.15V0ZM101.852 2H600V-2H101.852V2ZM103.852 332.5V0H99.8518V332.5H103.852ZM103.852 333V332.5H99.8518V333H103.852ZM101.852 331H101.852V335H101.852V331ZM600 663C462.905 663 338.867 625.94 249.111 566.113C159.341 506.276 104.053 423.824 103.852 332.996L99.8524 333.004C100.057 425.581 156.407 509.128 246.892 569.441C337.391 629.763 462.225 667 600 667V663ZM1096.15 332.996C1095.95 423.824 1040.66 506.276 950.889 566.113C861.133 625.94 737.095 663 600 663V667C737.775 667 862.609 629.763 953.108 569.441C1043.59 509.128 1099.94 425.581 1100.15 333.004L1096.15 332.996ZM1098.15 331H1098.15V335H1098.15V331ZM1096.15 332.5V333H1100.15V332.5H1096.15ZM1096.15 0V332.5H1100.15V0H1096.15ZM600 2H1098.15V-2H600V2Z" fill="#120078" mask="url(#path-4-inside-2_105_2722)"/>
<mask id="path-6-inside-3_105_2722" fill="white">
<path fill-rule="evenodd" clip-rule="evenodd" d="M600 1960L1098.15 1960L1098.15 1627.5L1098.15 1627L1098.15 1627C1097.74 1443.6 874.87 1295 600 1295C325.13 1295 102.257 1443.6 101.853 1627L101.852 1627L101.852 1627.5L101.852 1960L600 1960Z"/>
</mask>
<path d="M1098.15 1960L1098.15 1962L1100.15 1962L1100.15 1960L1098.15 1960ZM1098.15 1627.5L1096.15 1627.5L1098.15 1627.5ZM1098.15 1627L1100.15 1627L1100.15 1625L1098.15 1625L1098.15 1627ZM1098.15 1627L1096.15 1627L1096.15 1629L1098.15 1629L1098.15 1627ZM101.853 1627L101.853 1629L103.848 1629L103.853 1627L101.853 1627ZM101.852 1627L101.852 1625L99.8521 1625L99.8521 1627L101.852 1627ZM101.852 1627.5L103.852 1627.5L101.852 1627.5ZM101.852 1960L99.8521 1960L99.8521 1962L101.852 1962L101.852 1960ZM1098.15 1958L600 1958L600 1962L1098.15 1962L1098.15 1958ZM1096.15 1627.5L1096.15 1960L1100.15 1960L1100.15 1627.5L1096.15 1627.5ZM1096.15 1627L1096.15 1627.5L1100.15 1627.5L1100.15 1627L1096.15 1627ZM1098.15 1629L1098.15 1629L1098.15 1625L1098.15 1625L1098.15 1629ZM600 1297C737.095 1297 861.133 1334.06 950.889 1393.89C1040.66 1453.72 1095.95 1536.18 1096.15 1627L1100.15 1627C1099.94 1534.42 1043.59 1450.87 953.108 1390.56C862.609 1330.24 737.775 1293 600 1293L600 1297ZM103.853 1627C104.053 1536.18 159.341 1453.72 249.111 1393.89C338.867 1334.06 462.905 1297 600 1297L600 1293C462.225 1293 337.392 1330.24 246.893 1390.56C156.408 1450.87 100.057 1534.42 99.8526 1627L103.853 1627ZM101.852 1629L101.853 1629L101.853 1625L101.852 1625L101.852 1629ZM103.852 1627.5L103.852 1627L99.8521 1627L99.8521 1627.5L103.852 1627.5ZM103.852 1960L103.852 1627.5L99.8521 1627.5L99.8521 1960L103.852 1960ZM600 1958L101.852 1958L101.852 1962L600 1962L600 1958Z" fill="#120078" mask="url(#path-6-inside-3_105_2722)"/>
<path d="M740.667 416C740.667 500.021 677.617 568 600 568C522.383 568 459.333 500.021 459.333 416C459.333 331.979 522.383 264 600 264C677.617 264 740.667 331.979 740.667 416Z" stroke="#120078" stroke-width="2"/>
<path d="M459.333 1544C459.333 1459.98 522.383 1392 600 1392C677.617 1392 740.667 1459.98 740.667 1544C740.667 1628.02 677.617 1696 600 1696C522.383 1696 459.333 1628.02 459.333 1544Z" stroke="#120078" stroke-width="2"/>
<path d="M740.667 980C740.667 1064.02 677.617 1132 600 1132C522.383 1132 459.333 1064.02 459.333 980C459.333 895.979 522.383 828 600 828C677.617 828 740.667 895.979 740.667 980Z" stroke="#120078" stroke-width="2"/>
<path d="M459.135 415L366.988 1H833.012L740.865 415H459.135Z" stroke="#120078" stroke-width="2"/>
<path d="M740.864 1545L833.012 1959L366.987 1959L459.135 1545L740.864 1545Z" stroke="#120078" stroke-width="2"/>
<line x1="560.185" y1="195" x2="639.815" y2="195" stroke="#120078" stroke-width="2"/>
<path d="M610.111 208C610.111 214.149 605.513 219 600 219C594.487 219 589.889 214.149 589.889 208C589.889 201.851 594.487 197 600 197C605.513 197 610.111 201.851 610.111 208Z" stroke="#120078" stroke-width="2"/>
<line x1="639.815" y1="1765" x2="560.185" y2="1765" stroke="#120078" stroke-width="2"/>
<path d="M589.889 1752C589.889 1745.85 594.487 1741 600 1741C605.513 1741 610.111 1745.85 610.111 1752C610.111 1758.15 605.513 1763 600 1763C594.487 1763 589.889 1758.15 589.889 1752Z" stroke="#120078" stroke-width="2"/>
</svg>
